<mxfile host="app.diagrams.net" agent="Mozilla/5.0 (Macintosh; Intel Mac OS X 10.15; rv:131.0) Gecko/20100101 Firefox/131.0" version="24.7.14">
  <diagram name="Page-1" id="YmULuJq1XA86Xhlwb0B4">
    <mxGraphModel dx="1734" dy="982" grid="1" gridSize="10" guides="1" tooltips="1" connect="1" arrows="1" fold="1" page="1" pageScale="1" pageWidth="1169" pageHeight="827" math="0" shadow="0">
      <root>
        <mxCell id="0" />
        <mxCell id="1" parent="0" />
        <mxCell id="o61Xsmxy3MPeIaB5Hk0R-63" style="edgeStyle=orthogonalEdgeStyle;rounded=0;orthogonalLoop=1;jettySize=auto;html=1;entryX=0;entryY=0.5;entryDx=0;entryDy=0;strokeWidth=2;" edge="1" parent="1" source="o61Xsmxy3MPeIaB5Hk0R-32" target="o61Xsmxy3MPeIaB5Hk0R-61">
          <mxGeometry relative="1" as="geometry" />
        </mxCell>
        <mxCell id="o61Xsmxy3MPeIaB5Hk0R-64" style="edgeStyle=orthogonalEdgeStyle;rounded=0;orthogonalLoop=1;jettySize=auto;html=1;entryX=0;entryY=0.5;entryDx=0;entryDy=0;strokeWidth=2;" edge="1" parent="1" source="o61Xsmxy3MPeIaB5Hk0R-32" target="o61Xsmxy3MPeIaB5Hk0R-62">
          <mxGeometry relative="1" as="geometry" />
        </mxCell>
        <mxCell id="o61Xsmxy3MPeIaB5Hk0R-32" value="&lt;font style=&quot;font-size: 14px;&quot;&gt;Host Application&lt;/font&gt;" style="rounded=0;whiteSpace=wrap;html=1;fillColor=#fff2cc;strokeColor=#d6b656;" vertex="1" parent="1">
          <mxGeometry x="300" y="210" width="200" height="40" as="geometry" />
        </mxCell>
        <mxCell id="o61Xsmxy3MPeIaB5Hk0R-40" style="edgeStyle=orthogonalEdgeStyle;rounded=0;orthogonalLoop=1;jettySize=auto;html=1;shape=link;strokeWidth=2;" edge="1" parent="1" source="o61Xsmxy3MPeIaB5Hk0R-33" target="o61Xsmxy3MPeIaB5Hk0R-32">
          <mxGeometry relative="1" as="geometry" />
        </mxCell>
        <mxCell id="o61Xsmxy3MPeIaB5Hk0R-33" value="&lt;font style=&quot;font-size: 14px;&quot;&gt;MSAL Library&lt;/font&gt;" style="rounded=0;whiteSpace=wrap;html=1;fillColor=#dae8fc;strokeColor=#6c8ebf;" vertex="1" parent="1">
          <mxGeometry x="320" y="80" width="160" height="40" as="geometry" />
        </mxCell>
        <mxCell id="o61Xsmxy3MPeIaB5Hk0R-42" style="edgeStyle=orthogonalEdgeStyle;rounded=0;orthogonalLoop=1;jettySize=auto;html=1;entryX=0.5;entryY=0;entryDx=0;entryDy=0;fillColor=#dae8fc;strokeColor=#6c8ebf;strokeWidth=2;" edge="1" parent="1" source="o61Xsmxy3MPeIaB5Hk0R-34" target="o61Xsmxy3MPeIaB5Hk0R-33">
          <mxGeometry relative="1" as="geometry" />
        </mxCell>
        <mxCell id="o61Xsmxy3MPeIaB5Hk0R-34" value="&lt;font style=&quot;font-size: 14px;&quot;&gt;&lt;b&gt;AZURE&lt;/b&gt;&lt;/font&gt;" style="ellipse;shape=cloud;whiteSpace=wrap;html=1;fillColor=#dae8fc;strokeColor=#6c8ebf;dashed=1;dashPattern=1 1;strokeWidth=2;" vertex="1" parent="1">
          <mxGeometry x="600" y="10" width="120" height="80" as="geometry" />
        </mxCell>
        <mxCell id="o61Xsmxy3MPeIaB5Hk0R-54" style="edgeStyle=orthogonalEdgeStyle;rounded=0;orthogonalLoop=1;jettySize=auto;html=1;entryX=0;entryY=0.5;entryDx=0;entryDy=0;strokeWidth=2;" edge="1" parent="1" source="o61Xsmxy3MPeIaB5Hk0R-35" target="o61Xsmxy3MPeIaB5Hk0R-32">
          <mxGeometry relative="1" as="geometry" />
        </mxCell>
        <mxCell id="o61Xsmxy3MPeIaB5Hk0R-35" value="&lt;font style=&quot;font-size: 14px;&quot;&gt;User&lt;/font&gt;" style="shape=umlActor;verticalLabelPosition=bottom;verticalAlign=top;html=1;outlineConnect=0;strokeWidth=2;" vertex="1" parent="1">
          <mxGeometry x="20" y="185" width="50" height="90" as="geometry" />
        </mxCell>
        <mxCell id="o61Xsmxy3MPeIaB5Hk0R-58" style="edgeStyle=orthogonalEdgeStyle;rounded=0;orthogonalLoop=1;jettySize=auto;html=1;entryX=0.875;entryY=0.5;entryDx=0;entryDy=0;entryPerimeter=0;fillColor=#dae8fc;strokeColor=#6c8ebf;strokeWidth=2;" edge="1" parent="1" source="o61Xsmxy3MPeIaB5Hk0R-33" target="o61Xsmxy3MPeIaB5Hk0R-34">
          <mxGeometry relative="1" as="geometry">
            <Array as="points">
              <mxPoint x="780" y="100" />
              <mxPoint x="780" y="50" />
            </Array>
          </mxGeometry>
        </mxCell>
        <mxCell id="o61Xsmxy3MPeIaB5Hk0R-61" value="RIS" style="rounded=0;whiteSpace=wrap;html=1;fillColor=#d5e8d4;strokeColor=#82b366;" vertex="1" parent="1">
          <mxGeometry x="600" y="170" width="200" height="40" as="geometry" />
        </mxCell>
        <mxCell id="o61Xsmxy3MPeIaB5Hk0R-62" value="CRD" style="rounded=0;whiteSpace=wrap;html=1;fillColor=#f8cecc;strokeColor=#b85450;" vertex="1" parent="1">
          <mxGeometry x="600" y="250" width="200" height="40" as="geometry" />
        </mxCell>
        <mxCell id="o61Xsmxy3MPeIaB5Hk0R-65" value="&lt;div&gt;ris-online.rne.eu&lt;/div&gt;" style="text;html=1;align=center;verticalAlign=middle;whiteSpace=wrap;rounded=0;fontSize=14;" vertex="1" parent="1">
          <mxGeometry x="120" y="200" width="110" height="30" as="geometry" />
        </mxCell>
        <mxCell id="o61Xsmxy3MPeIaB5Hk0R-66" value="newcrd.rne.eu" style="text;html=1;align=center;verticalAlign=middle;whiteSpace=wrap;rounded=0;fontSize=14;" vertex="1" parent="1">
          <mxGeometry x="120" y="230" width="110" height="30" as="geometry" />
        </mxCell>
        <mxCell id="o61Xsmxy3MPeIaB5Hk0R-95" style="edgeStyle=orthogonalEdgeStyle;rounded=0;orthogonalLoop=1;jettySize=auto;html=1;entryX=0.5;entryY=1;entryDx=0;entryDy=0;shape=link;strokeWidth=2;" edge="1" parent="1" source="o61Xsmxy3MPeIaB5Hk0R-69" target="o61Xsmxy3MPeIaB5Hk0R-71">
          <mxGeometry relative="1" as="geometry" />
        </mxCell>
        <mxCell id="o61Xsmxy3MPeIaB5Hk0R-98" style="edgeStyle=orthogonalEdgeStyle;rounded=0;orthogonalLoop=1;jettySize=auto;html=1;entryX=0.5;entryY=1;entryDx=0;entryDy=0;strokeWidth=2;" edge="1" parent="1" source="o61Xsmxy3MPeIaB5Hk0R-69" target="o61Xsmxy3MPeIaB5Hk0R-88">
          <mxGeometry relative="1" as="geometry">
            <Array as="points">
              <mxPoint x="600" y="710" />
            </Array>
          </mxGeometry>
        </mxCell>
        <mxCell id="o61Xsmxy3MPeIaB5Hk0R-99" style="edgeStyle=orthogonalEdgeStyle;rounded=0;orthogonalLoop=1;jettySize=auto;html=1;entryX=0;entryY=0.5;entryDx=0;entryDy=0;strokeWidth=2;" edge="1" parent="1" source="o61Xsmxy3MPeIaB5Hk0R-69" target="o61Xsmxy3MPeIaB5Hk0R-77">
          <mxGeometry relative="1" as="geometry" />
        </mxCell>
        <mxCell id="o61Xsmxy3MPeIaB5Hk0R-100" style="edgeStyle=orthogonalEdgeStyle;rounded=0;orthogonalLoop=1;jettySize=auto;html=1;entryX=0;entryY=0.5;entryDx=0;entryDy=0;strokeWidth=2;" edge="1" parent="1" source="o61Xsmxy3MPeIaB5Hk0R-69" target="o61Xsmxy3MPeIaB5Hk0R-78">
          <mxGeometry relative="1" as="geometry" />
        </mxCell>
        <mxCell id="o61Xsmxy3MPeIaB5Hk0R-69" value="&lt;font style=&quot;font-size: 14px;&quot;&gt;Host Application&lt;/font&gt;" style="rounded=0;whiteSpace=wrap;html=1;fillColor=#fff2cc;strokeColor=#d6b656;" vertex="1" parent="1">
          <mxGeometry x="300" y="690" width="200" height="40" as="geometry" />
        </mxCell>
        <mxCell id="o61Xsmxy3MPeIaB5Hk0R-71" value="&lt;font style=&quot;font-size: 14px;&quot;&gt;MSAL Library&lt;/font&gt;" style="rounded=0;whiteSpace=wrap;html=1;fillColor=#dae8fc;strokeColor=#6c8ebf;" vertex="1" parent="1">
          <mxGeometry x="320" y="510" width="160" height="40" as="geometry" />
        </mxCell>
        <mxCell id="o61Xsmxy3MPeIaB5Hk0R-72" style="edgeStyle=orthogonalEdgeStyle;rounded=0;orthogonalLoop=1;jettySize=auto;html=1;entryX=0.5;entryY=0;entryDx=0;entryDy=0;fillColor=#dae8fc;strokeColor=#6c8ebf;strokeWidth=2;" edge="1" parent="1" source="o61Xsmxy3MPeIaB5Hk0R-73" target="o61Xsmxy3MPeIaB5Hk0R-71">
          <mxGeometry relative="1" as="geometry" />
        </mxCell>
        <mxCell id="o61Xsmxy3MPeIaB5Hk0R-73" value="&lt;font style=&quot;font-size: 14px;&quot;&gt;&lt;b&gt;AZURE&lt;/b&gt;&lt;/font&gt;" style="ellipse;shape=cloud;whiteSpace=wrap;html=1;fillColor=#dae8fc;strokeColor=#6c8ebf;dashed=1;dashPattern=1 1;strokeWidth=2;" vertex="1" parent="1">
          <mxGeometry x="600" y="440" width="120" height="80" as="geometry" />
        </mxCell>
        <mxCell id="o61Xsmxy3MPeIaB5Hk0R-74" style="edgeStyle=orthogonalEdgeStyle;rounded=0;orthogonalLoop=1;jettySize=auto;html=1;entryX=0;entryY=0.5;entryDx=0;entryDy=0;" edge="1" parent="1" source="o61Xsmxy3MPeIaB5Hk0R-75" target="o61Xsmxy3MPeIaB5Hk0R-69">
          <mxGeometry relative="1" as="geometry" />
        </mxCell>
        <mxCell id="o61Xsmxy3MPeIaB5Hk0R-75" value="&lt;font style=&quot;font-size: 14px;&quot;&gt;User&lt;/font&gt;" style="shape=umlActor;verticalLabelPosition=bottom;verticalAlign=top;html=1;outlineConnect=0;strokeWidth=2;" vertex="1" parent="1">
          <mxGeometry x="20" y="665" width="50" height="90" as="geometry" />
        </mxCell>
        <mxCell id="o61Xsmxy3MPeIaB5Hk0R-77" value="&lt;font style=&quot;font-size: 14px;&quot;&gt;RIS&lt;/font&gt;" style="rounded=0;whiteSpace=wrap;html=1;fillColor=#d5e8d4;strokeColor=#82b366;" vertex="1" parent="1">
          <mxGeometry x="700" y="650" width="200" height="40" as="geometry" />
        </mxCell>
        <mxCell id="o61Xsmxy3MPeIaB5Hk0R-78" value="&lt;font style=&quot;font-size: 14px;&quot;&gt;CRD&lt;/font&gt;" style="rounded=0;whiteSpace=wrap;html=1;fillColor=#f8cecc;strokeColor=#b85450;" vertex="1" parent="1">
          <mxGeometry x="700" y="730" width="200" height="40" as="geometry" />
        </mxCell>
        <mxCell id="o61Xsmxy3MPeIaB5Hk0R-79" value="&lt;div&gt;ris-online.rne.eu&lt;/div&gt;" style="text;html=1;align=center;verticalAlign=middle;whiteSpace=wrap;rounded=0;fontSize=14;" vertex="1" parent="1">
          <mxGeometry x="120" y="680" width="110" height="30" as="geometry" />
        </mxCell>
        <mxCell id="o61Xsmxy3MPeIaB5Hk0R-80" value="newcrd.rne.eu" style="text;html=1;align=center;verticalAlign=middle;whiteSpace=wrap;rounded=0;fontSize=14;" vertex="1" parent="1">
          <mxGeometry x="120" y="710" width="110" height="30" as="geometry" />
        </mxCell>
        <mxCell id="o61Xsmxy3MPeIaB5Hk0R-84" style="edgeStyle=orthogonalEdgeStyle;rounded=0;orthogonalLoop=1;jettySize=auto;html=1;entryX=0.875;entryY=0.5;entryDx=0;entryDy=0;entryPerimeter=0;fillColor=#dae8fc;strokeColor=#6c8ebf;strokeWidth=2;exitX=1;exitY=0.5;exitDx=0;exitDy=0;" edge="1" parent="1" source="o61Xsmxy3MPeIaB5Hk0R-71" target="o61Xsmxy3MPeIaB5Hk0R-73">
          <mxGeometry relative="1" as="geometry">
            <mxPoint x="800" y="580.0000000000002" as="sourcePoint" />
            <Array as="points">
              <mxPoint x="780" y="530" />
              <mxPoint x="780" y="480" />
            </Array>
          </mxGeometry>
        </mxCell>
        <mxCell id="o61Xsmxy3MPeIaB5Hk0R-97" style="edgeStyle=orthogonalEdgeStyle;rounded=0;orthogonalLoop=1;jettySize=auto;html=1;exitX=0;exitY=0.5;exitDx=0;exitDy=0;entryX=0.75;entryY=1;entryDx=0;entryDy=0;strokeWidth=2;" edge="1" parent="1" source="o61Xsmxy3MPeIaB5Hk0R-88" target="o61Xsmxy3MPeIaB5Hk0R-71">
          <mxGeometry relative="1" as="geometry" />
        </mxCell>
        <mxCell id="o61Xsmxy3MPeIaB5Hk0R-88" value="&lt;font style=&quot;font-size: 14px;&quot;&gt;LANDING PAGE&lt;/font&gt;" style="rounded=0;whiteSpace=wrap;html=1;fillColor=#d5e8d4;strokeColor=#82b366;" vertex="1" parent="1">
          <mxGeometry x="500" y="580" width="200" height="40" as="geometry" />
        </mxCell>
      </root>
    </mxGraphModel>
  </diagram>
</mxfile>
